<?xml version="1.0" encoding="utf-8"?>
<!-- Generator: Adobe Illustrator 15.0.0, SVG Export Plug-In . SVG Version: 6.00 Build 0)  -->
<!DOCTYPE svg PUBLIC "-//W3C//DTD SVG 1.1//EN" "http://www.w3.org/Graphics/SVG/1.1/DTD/svg11.dtd">
<svg version="1.1" id="Layer_1" xmlns="http://www.w3.org/2000/svg" xmlns:xlink="http://www.w3.org/1999/xlink" x="0px" y="0px"
	 width="792px" height="1224px" viewBox="0 0 792 1224" enable-background="new 0 0 792 1224" xml:space="preserve">
<g>
	<g>
		<path d="M403.266,759.388c-9.359-0.649-18.473-2.178-27.341-4.599c-8.874-2.42-16.693-5.236-23.47-8.469
			c-18.392-8.386-32.828-22.018-43.314-40.891c-10.485-18.875-15.725-41.212-15.725-67.023c0-2.254,0-4.758,0-7.502
			c0-2.738,0.158-5.24,0.482-7.502v0.484c1.287-18.388,4.757-35.401,10.401-51.053c5.644-15.645,13.874-28.955,24.686-39.926
			c10.804-10.963,24.272-19.274,40.408-24.922c16.13-5.641,35.159-7.819,57.102-6.533c19.677,1.293,36.615,5.732,50.81,13.309
			c14.195,7.584,25.891,17.748,35.088,30.487c9.197,12.747,15.801,27.509,19.845,44.277c4.026,16.78,5.716,35.01,5.075,54.686
			c-1.295,35.81-11.936,64.046-31.937,84.687c-20.013,20.654-49.366,30.972-88.075,30.972c-2.586,0-5.003,0-7.26,0
			C407.777,759.87,405.523,759.705,403.266,759.388z M415.848,694.057c16.453,0,28.952-4.997,37.502-15
			c8.545-9.997,13.146-23.715,13.793-41.137c0.642-18.704-2.828-34.433-10.401-47.184c-7.585-12.739-19.923-19.754-37.022-21.05
			c-9.356-0.642-17.422,0.409-24.195,3.147c-6.771,2.742-12.504,6.775-17.178,12.099c-4.68,5.32-8.311,11.697-10.887,19.113
			c-2.589,7.427-4.045,15.65-4.356,24.681v-0.482v7.256c0,12.268,2.25,22.912,6.776,31.941c4.512,9.035,10.647,15.65,18.389,19.839
			c2.9,1.618,6.123,2.989,9.674,4.116c3.55,1.133,7.582,2.02,12.1,2.66H415.848z"/>
	</g>
	<path fill="#C3DB62" d="M533.975,486.887c0,0-65.567-0.771-95.676,36.436c-37.191,45.963-22.787,109.961-22.787,109.961
		s66.736-7.221,99.499-47.711C547.779,545.081,533.975,486.887,533.975,486.887z"/>
</g>
</svg>
