<?xml version="1.0" encoding="utf-8"?>
<!-- Generator: Adobe Illustrator 15.0.0, SVG Export Plug-In . SVG Version: 6.00 Build 0)  -->
<!DOCTYPE svg PUBLIC "-//W3C//DTD SVG 1.1//EN" "http://www.w3.org/Graphics/SVG/1.1/DTD/svg11.dtd">
<svg version="1.1" id="Layer_1" xmlns="http://www.w3.org/2000/svg" xmlns:xlink="http://www.w3.org/1999/xlink" x="0px" y="0px"
	 width="792px" height="1224px" viewBox="0 0 792 1224" enable-background="new 0 0 792 1224" xml:space="preserve">
<g>
	<g>
		<path fill="#FFFFFF" d="M411.96,719.76c-9.359-0.65-18.473-2.178-27.34-4.599c-8.874-2.421-16.693-5.237-23.47-8.47
			c-18.392-8.385-32.829-22.016-43.314-40.891c-10.485-18.873-15.725-41.211-15.725-67.023c0-2.252,0-4.757,0-7.502
			c0-2.737,0.159-5.239,0.482-7.501v0.484c1.288-18.387,4.757-35.401,10.402-51.053c5.644-15.645,13.874-28.955,24.686-39.926
			c10.803-10.962,24.272-19.274,40.408-24.921c16.13-5.641,35.16-7.819,57.101-6.534c19.678,1.294,36.615,5.732,50.811,13.309
			c14.194,7.584,25.891,17.748,35.088,30.487c9.197,12.748,15.801,27.508,19.844,44.277c4.027,16.78,5.717,35.01,5.076,54.686
			c-1.295,35.81-11.936,64.045-31.938,84.688c-20.012,20.652-49.365,30.971-88.074,30.971c-2.586,0-5.004,0-7.26,0
			C416.472,720.242,414.219,720.077,411.96,719.76z M424.543,654.429c16.453,0,28.951-4.997,37.502-15
			c8.544-9.997,13.146-23.716,13.793-41.136c0.641-18.705-2.828-34.434-10.402-47.184c-7.585-12.74-19.922-19.754-37.022-21.05
			c-9.356-0.641-17.421,0.409-24.194,3.147c-6.771,2.743-12.505,6.775-17.179,12.099c-4.679,5.32-8.31,11.697-10.887,19.113
			c-2.588,7.427-4.044,15.65-4.356,24.68v-0.482v7.256c0,12.269,2.25,22.913,6.776,31.942c4.512,9.036,10.647,15.65,18.389,19.839
			c2.9,1.617,6.123,2.99,9.674,4.116c3.549,1.133,7.582,2.02,12.1,2.66H424.543z"/>
	</g>
	<path fill="#C3DB62" d="M542.67,447.259c0,0-65.568-0.771-95.676,36.436c-37.191,45.963-22.787,109.96-22.787,109.96
		s66.736-7.22,99.498-47.71C556.475,505.453,542.67,447.259,542.67,447.259z"/>
</g>
</svg>
